<?xml version="1.0" encoding="utf-8"?>
<!-- Generator: Adobe Illustrator 16.0.3, SVG Export Plug-In . SVG Version: 6.00 Build 0)  -->
<!DOCTYPE svg PUBLIC "-//W3C//DTD SVG 1.1//EN" "http://www.w3.org/Graphics/SVG/1.1/DTD/svg11.dtd">
<svg version="1.1" id="bean" xmlns="http://www.w3.org/2000/svg" xmlns:xlink="http://www.w3.org/1999/xlink" x="0px" y="0px"
	 width="1200px" height="1200px" viewBox="0 0 1200 1200" enable-background="new 0 0 1200 1200" xml:space="preserve">
<g>
	<rect display="none" fill="#7FAF46" width="1200" height="1200"/>
	<path opacity="0.5" fill="#F7EFCF" enable-background="new    " d="M600,344c68.38,0,132.667,26.629,181.02,74.98
		C829.371,467.333,856,531.62,856,600s-26.629,132.667-74.98,181.02C732.667,829.371,668.38,856,600,856
		s-132.667-26.629-181.019-74.98C370.628,732.667,344,668.38,344,600s26.628-132.667,74.981-181.02
		C467.333,370.629,531.62,344,600,344 M600,88C317.231,88,88,317.23,88,600s229.231,512,512,512c282.77,0,512-229.23,512-512
		S882.77,88,600,88L600,88z"/>
	<path fill="#F7EFCF" d="M181.518,798.073c43.361,2.401,73.778-9.494,134.087-33.988C466,703.003,532.313,628.048,638.088,501.597
		c78.303-93.604,181.578-129.654,334.611-154.596c12.271-2,6.069-38.001-14.555-61.653C852.854,164.599,674.395,140.818,414,275
		C136.492,418.001,77,685.335,151.667,780.003C157.326,787.179,172.688,797.585,181.518,798.073z"/>
	<path fill="#F7EFCF" d="M991.345,382.074c-82.785,18.078-203.683,91.184-299.678,187.929
		c-95.996,96.744-157.646,190.926-318.177,242.769c-60.918,19.672-125.117,21.305-154.65,35.231c-14.84,7-11.917,30.566-4.016,41.1
		c26.176,34.9,58.676,64.9,92.51,82.232c152.047,77.896,304.361,61.721,483.666-37c187.971-103.49,273.655-222.271,282.566-373.239
		c2.951-50.007-15.235-115.253-40.178-160.672C1023,381.5,1006.672,378.727,991.345,382.074z"/>
</g>
</svg>
