<?xml version="1.0" encoding="utf-8"?>
<!-- Generator: Adobe Illustrator 16.0.3, SVG Export Plug-In . SVG Version: 6.00 Build 0)  -->
<!DOCTYPE svg PUBLIC "-//W3C//DTD SVG 1.1//EN" "http://www.w3.org/Graphics/SVG/1.1/DTD/svg11.dtd">
<svg version="1.1" id="challah" xmlns="http://www.w3.org/2000/svg" xmlns:xlink="http://www.w3.org/1999/xlink" x="0px" y="0px"
	 width="1200px" height="1200px" viewBox="0 0 1200 1200" enable-background="new 0 0 1200 1200" xml:space="preserve">
<g opacity="0.5">
	<g>
		
			<rect x="175.737" y="175.737" transform="matrix(0.7071 -0.7071 0.7071 0.7071 -248.5277 599.9983)" fill="#F6EECE" width="848.528" height="848.526"/>
	</g>
</g>
<g>
	<g>
		<path fill="#F6EECE" d="M535.467,602.36c-10.08,10.71-20.398,21.52-31.148,32.35c-83.812,84.46-186.59,150.9-266.431,178.45
			c-11.609,4-22.739,7.18-33.25,9.479c-15.319,3.352-31.649,0.57-42.04-18.35c-24.939-45.42-43.13-110.67-40.18-160.67
			c0.83-14.03,2.32-27.78,4.49-41.26c-2.17-13.48-3.66-27.23-4.49-41.261c-2.95-50.01,15.24-115.26,40.18-160.68
			c10.391-18.92,26.71-21.688,42.04-18.35c10.511,2.3,21.641,5.479,33.25,9.479c79.841,27.55,182.62,93.99,266.431,178.45
			C515.067,580.84,525.396,591.65,535.467,602.36z"/>
	</g>
	<g>
		<path fill="#F6EECE" d="M981.157,889.1c-26.17,34.9-58.67,64.9-92.511,82.23c-94.631,48.479-189.369,60.53-290.649,38.9
			c-101.29,21.63-196.03,9.59-290.67-38.9c-33.83-17.33-66.33-47.33-92.51-82.23c-7.9-10.528-10.82-34.1,4.02-41.1
			c10.62-5.01,25.75-8.43,43.59-11.68h0.011c31.729-5.762,72.06-10.96,111.05-23.552c104.47-33.738,167.069-85.408,224.51-144.05
			c57.42,58.642,120.02,110.312,224.5,144.05c38.99,12.592,79.32,17.79,111.05,23.562c17.84,3.24,32.97,6.66,43.601,11.67
			C991.987,855,989.057,878.57,981.157,889.1z"/>
	</g>
	<g>
		<path fill="#F6EECE" d="M1073.567,643.62c2.948,50-15.24,115.25-40.182,160.67c-10.39,18.92-26.72,21.7-42.05,18.35
			c-10.51-2.29-21.63-5.479-33.24-9.479c-79.83-27.54-182.619-93.99-266.43-178.45c-10.75-10.83-21.07-21.64-31.15-32.35
			c10.07-10.71,20.4-21.521,31.15-32.36c83.811-84.46,186.6-150.91,266.43-178.45c11.61-4,22.73-7.188,33.24-9.479
			c15.33-3.34,31.66-0.57,42.05,18.35c24.94,45.42,43.13,110.67,40.182,160.68c-0.83,14.021-2.32,27.771-4.49,41.25v0.012
			C1071.247,615.84,1072.737,629.59,1073.567,643.62z"/>
	</g>
	<g>
		<path fill="#F6EECE" d="M977.146,356.71c-10.631,5.021-25.75,8.43-43.591,11.67h-0.01c-31.729,5.771-72.06,10.97-111.05,23.562
			c-104.48,33.738-167.07,85.408-224.5,144.05c-57.44-58.642-120.04-110.312-224.51-144.05
			c-38.99-12.592-79.33-17.79-111.061-23.562c-17.84-3.24-32.97-6.648-43.59-11.67c-14.84-7-11.92-30.57-4.02-41.1
			c26.18-34.9,58.68-64.9,92.51-82.23c94.64-48.49,189.38-60.53,290.67-38.899c101.29-21.62,196.02-9.58,290.649,38.899
			c33.841,17.33,66.341,47.33,92.511,82.23C989.057,326.14,991.987,349.71,977.146,356.71z"/>
	</g>
</g>
</svg>
