<?xml version="1.0" encoding="UTF-8" standalone="no"?><!DOCTYPE svg PUBLIC "-//W3C//DTD SVG 1.1//EN" "http://www.w3.org/Graphics/SVG/1.1/DTD/svg11.dtd"><svg width="100%" height="100%" viewBox="0 0 1200 1200" version="1.1" xmlns="http://www.w3.org/2000/svg" xmlns:xlink="http://www.w3.org/1999/xlink" xml:space="preserve" xmlns:serif="http://www.serif.com/" style="fill-rule:evenodd;clip-rule:evenodd;stroke-linejoin:round;stroke-miterlimit:1.41421;"><g id="grape"><path id="glass" d="M786.323,344c29.464,90.982 55.086,170.125 58.519,180.784c7.404,24.163 11.158,49.466 11.158,75.216c0,68.38 -26.629,132.667 -74.98,181.02c-48.353,48.351 -112.64,74.98 -181.02,74.98c-68.38,0 -132.667,-26.629 -181.02,-74.98c-48.351,-48.353 -74.98,-112.64 -74.98,-181.02c0,-25.726 3.745,-51 11.136,-75.145c3.339,-10.371 29.011,-89.666 58.541,-180.855l372.646,0m186.181,-256l-745.008,0c0,0 -115.364,356.167 -116.537,359.942l-0.019,0.058l0.001,0c-14.909,48.023 -22.941,99.073 -22.941,152c0,282.77 229.23,512 512,512c282.77,0 512,-229.23 512,-512c0,-52.927 -8.032,-103.977 -22.941,-152l0.001,0l-0.019,-0.058c-1.173,-3.775 -116.537,-359.942 -116.537,-359.942Z" style="fill:#f7efcf;fill-opacity:0.5;fill-rule:nonzero;"/><path id="wine" d="M204.642,382.074c82.785,18.078 203.683,91.184 299.678,187.929c95.996,96.744 157.645,190.926 318.177,242.768c60.918,19.672 125.117,21.305 154.65,35.232c14.84,7 11.917,30.566 4.016,41.1c-26.176,34.9 -58.676,64.9 -92.51,82.232c-152.047,77.896 -304.361,61.721 -483.666,-37c-187.971,-103.49 -273.655,-222.27 -282.566,-373.239c-2.952,-50.007 15.235,-115.253 40.177,-160.672c10.388,-18.924 26.716,-21.697 42.044,-18.35Z" style="fill:#f7efcf;fill-rule:nonzero;"/></g></svg>