<?xml version="1.0" encoding="utf-8"?>
<!-- Generator: Adobe Illustrator 16.0.3, SVG Export Plug-In . SVG Version: 6.00 Build 0)  -->
<!DOCTYPE svg PUBLIC "-//W3C//DTD SVG 1.1//EN" "http://www.w3.org/Graphics/SVG/1.1/DTD/svg11.dtd">
<svg version="1.1" id="grape" xmlns="http://www.w3.org/2000/svg" xmlns:xlink="http://www.w3.org/1999/xlink" x="0px" y="0px"
	 width="1200px" height="1200px" viewBox="0 0 1200 1200" enable-background="new 0 0 1200 1200" xml:space="preserve">
<rect fill="none" width="1200" height="1200"/>
<path id="glass" fill="#F7EFCF" fill-opacity="0.5" d="M786.321,344.162c29.467,91.022,55.088,170.203,58.522,180.869
	c7.402,24.171,11.155,49.489,11.155,75.25c0,68.411-26.627,132.731-74.977,181.107C732.669,829.76,668.379,856.4,600,856.4
	c-68.38,0-132.667-26.641-181.021-75.013C370.628,733.012,344,668.691,344,600.281c0-25.738,3.745-51.023,11.136-75.178
	c3.338-10.376,29.01-89.71,58.54-180.941H786.321 M972.503,88.042H227.497c0,0-115.364,356.332-116.538,360.11l-0.02,0.059h0.002
	C96.032,496.254,88,547.33,88,600.281c0,282.903,229.23,512.239,512,512.239c282.771,0,511.999-229.336,511.999-512.239
	c0-52.951-8.031-104.026-22.939-152.07l0,0l-0.02-0.059C1087.868,444.375,972.503,88.042,972.503,88.042L972.503,88.042z"/>
<path id="wine" fill="#F7EFCF" d="M204.642,382.252c82.785,18.084,203.683,91.228,299.678,188.018
	c95.996,96.787,157.646,191.017,318.177,242.883c60.918,19.678,125.117,21.313,154.651,35.245
	c14.837,7.005,11.914,30.58,4.017,41.119c-26.178,34.919-58.678,64.933-92.513,82.271c-152.044,77.934-304.36,61.751-483.666-37.016
	C217.017,831.235,131.332,712.396,122.42,561.356c-2.951-50.03,15.236-115.305,40.177-160.746
	C172.987,381.679,189.315,378.904,204.642,382.252z"/>
</svg>
